<svg width="22" height="19" fill="none" xmlns="http://www.w3.org/2000/svg"><path fill-rule="evenodd" clip-rule="evenodd" d="M0 .5A.5.5 0 0 1 .5 0h3a.5.5 0 0 1 .485.379L4.89 4H21.5a.5.5 0 0 1 .477.65l-2.5 8A.5.5 0 0 1 19 13H6.5a.5.5 0 0 1-.485-.379L3.11 1H.5A.5.5 0 0 1 0 .5ZM5.14 5l1.75 7h11.742l2.188-7H5.14ZM8.5 18a1.5 1.5 0 1 0 0-3 1.5 1.5 0 0 0 0 3Zm0 1a2.5 2.5 0 1 0 0-5 2.5 2.5 0 0 0 0 5Zm8-1a1.5 1.5 0 1 0 0-3 1.5 1.5 0 0 0 0 3Zm0 1a2.5 2.5 0 1 0 0-5 2.5 2.5 0 0 0 0 5Z" fill="#F04716" style="fill:color(display-p3 .9412 .2784 .0863);fill-opacity:1"/></svg>