<svg width="61" height="45" fill="none" xmlns="http://www.w3.org/2000/svg"><path d="M18 37.5c0 2.697-1.95 4.5-4.5 4.5S9 40.197 9 37.5c0-2.927 2.174-5 4.5-5s4.5 2.073 4.5 5Zm34 0c0 2.697-1.95 4.5-4.5 4.5S43 40.197 43 37.5c0-2.927 2.174-5 4.5-5s4.5 2.073 4.5 5Z" stroke="#6E7284" style="stroke:color(display-p3 .4314 .4471 .5176);stroke-opacity:1" stroke-width="5"/><path d="M35.5 31.5H60v-9L59 21H43l-2-2V5h-3.5l-2 2v24.5Z" fill="#F04716" style="fill:color(display-p3 .9412 .2784 .0863);fill-opacity:1"/><path fill-rule="evenodd" clip-rule="evenodd" d="M9.974 13.327v6.795a3.39 3.39 0 0 0 1.699 2.94l5.85 3.365c1.038.597 2.315.6 3.355.006l5.91-3.373a3.391 3.391 0 0 0 1.71-2.946v-6.78a3.391 3.391 0 0 0-1.71-2.945l-5.91-3.373a3.374 3.374 0 0 0-3.355.006l-5.85 3.365a3.391 3.391 0 0 0-1.699 2.94Zm1.47 6.795v-6.795c0-.686.366-1.32.96-1.662l1.319-.758v11.635l-1.319-.758a1.917 1.917 0 0 1-.96-1.662Zm5.219 4.111 1.591.916a1.907 1.907 0 0 0 1.897.003l5.31-3.03H16.59a.736.736 0 0 1 0-1.474h10.36c.05-.17.076-.35.076-.534v-5.508H16.589a.736.736 0 0 1 0-1.474h10.427a1.916 1.916 0 0 0-.955-1.462l-5.91-3.373a1.907 1.907 0 0 0-1.896.003l-1.592.916v3.327c-.73 0-1.323.594-1.323 1.326 0 .733.592 1.326 1.323 1.326v4.864c-.73 0-1.323.594-1.323 1.326 0 .733.592 1.327 1.323 1.327v1.521Z" fill="#36383F" style="fill:color(display-p3 .2118 .2196 .2471);fill-opacity:1"/><path d="M49.645 37.236a2.296 2.296 0 0 1-2.305 2.286 2.296 2.296 0 0 1-2.305-2.286 2.296 2.296 0 0 1 2.305-2.286 2.296 2.296 0 0 1 2.305 2.286Zm-36.19-2.286a2.296 2.296 0 0 0-2.306 2.286 2.296 2.296 0 0 0 2.305 2.286 2.296 2.296 0 0 0 2.305-2.286 2.296 2.296 0 0 0-2.305-2.286ZM51.22 6.434a2.308 2.308 0 0 0-2.029-1.2h-7.96V18.95a2.296 2.296 0 0 0 2.304 2.286H59.28L51.22 6.434Z" fill="#fff" style="fill:#fff;fill-opacity:1"/><path d="M60.793 22.956a3.17 3.17 0 0 0-.385-1.512l-.343-.63-.003-.006-8.06-14.8a3.196 3.196 0 0 0-2.81-1.664H38.664v-.71c0-1.751-1.434-3.176-3.196-3.176H3.196C1.434.458 0 1.883 0 3.634v18.868a.89.89 0 0 0 1.781 0V3.634c0-.77.635-1.395 1.415-1.395h32.272c.78 0 1.415.626 1.415 1.395v.872a3.183 3.183 0 0 0-2.19 3.014v24.001a.89.89 0 0 0 .89.891h5.655a7.68 7.68 0 0 0-1.651 3.934h-18.38a7.678 7.678 0 0 0-1.652-3.934h12.859a.89.89 0 0 0 0-1.781H17.529a7.8 7.8 0 0 0-4.075-1.143 7.802 7.802 0 0 0-4.076 1.143H1.781V25.73a.89.89 0 0 0-1.781 0v9.22c0 1.75 1.434 3.175 3.196 3.175H5.7c.446 3.855 3.752 6.858 7.753 6.858 4 0 7.306-3.003 7.753-6.858h18.38c.446 3.855 3.752 6.858 7.753 6.858 4 0 7.306-3.003 7.753-6.858h2.505c1.762 0 3.196-1.424 3.196-3.176V22.956ZM36.473 7.52c0-.77.636-1.395 1.416-1.395h2.451v3.51a.89.89 0 0 0 1.781 0v-3.51h7.071c.522 0 1 .282 1.246.735l7.343 13.485H43.537c-.78 0-1.415-.626-1.415-1.396v-6.114a.89.89 0 0 0-1.78 0v6.114c0 1.752 1.433 3.177 3.195 3.177h15.215l.093.17c.11.202.168.43.168.66v7.675h-7.427a.89.89 0 0 0-.149.013 7.801 7.801 0 0 0-4.096-1.156 7.801 7.801 0 0 0-4.076 1.143h-6.79V7.521ZM1.782 34.95v-2.538h5.571a7.68 7.68 0 0 0-1.651 3.934H3.196c-.78 0-1.415-.626-1.415-1.396Zm11.673 8.253c-3.322 0-6.025-2.677-6.025-5.967 0-3.29 2.703-5.967 6.025-5.967 3.322 0 6.025 2.677 6.025 5.967 0 3.29-2.703 5.967-6.025 5.967Zm33.886 0c-3.323 0-6.025-2.677-6.025-5.967 0-3.29 2.703-5.967 6.025-5.967 3.322 0 6.025 2.677 6.025 5.967 0 3.29-2.703 5.967-6.025 5.967Zm10.258-6.857h-2.505a7.678 7.678 0 0 0-1.652-3.934h5.571v2.538c0 .77-.634 1.396-1.414 1.396Zm-4.58-11.682a.89.89 0 0 1 .891-.89h2.306a.89.89 0 0 1 0 1.78H53.91a.89.89 0 0 1-.89-.89ZM13.455 34.06c-1.762 0-3.196 1.425-3.196 3.176 0 1.752 1.434 3.177 3.196 3.177 1.762 0 3.195-1.425 3.195-3.177 0-1.751-1.433-3.176-3.195-3.176Zm0 4.572c-.78 0-1.415-.626-1.415-1.396 0-.77.635-1.395 1.415-1.395s1.414.626 1.414 1.395c0 .77-.634 1.396-1.414 1.396ZM47.34 34.06c-1.762 0-3.196 1.425-3.196 3.176 0 1.752 1.434 3.177 3.196 3.177 1.762 0 3.195-1.425 3.195-3.177 0-1.751-1.433-3.176-3.195-3.176Zm0 4.572c-.78 0-1.415-.626-1.415-1.396 0-.77.635-1.395 1.415-1.395s1.414.626 1.414 1.395c0 .77-.634 1.396-1.414 1.396Z" fill="#36383F" style="fill:color(display-p3 .2118 .2196 .2471);fill-opacity:1"/></svg>