<svg width="54" height="54" fill="none" xmlns="http://www.w3.org/2000/svg"><g clip-path="url(#a)"><circle cx="39" cy="21" r="4.5" stroke="#4788FF" style="stroke:color(display-p3 .2792 .5331 1);stroke-opacity:1" stroke-width="3"/><path fill="#4788FF" style="fill:color(display-p3 .2792 .5331 1);fill-opacity:1" d="M1 1h3v52H1z"/><path fill="#F04716" style="fill:color(display-p3 .9412 .2784 .0863);fill-opacity:1" d="M25 1h4v52h-4z"/><path d="M50 1h3.5v52H50V1Z" fill="#4788FF" style="fill:color(display-p3 .2792 .5331 1);fill-opacity:1"/><path d="M53.262 12.94A.737.737 0 0 0 54 12.2V.738A.737.737 0 0 0 53.262 0h-3.375a.738.738 0 0 0-.739.738V3.67H29.426V.738A.739.739 0 0 0 28.688 0h-3.375a.738.738 0 0 0-.739.738V3.67H4.852V.738A.738.738 0 0 0 4.113 0H.738A.738.738 0 0 0 0 .738v52.524A.738.738 0 0 0 .738 54h3.375a.738.738 0 0 0 .739-.738V50.33h19.722v2.933a.739.739 0 0 0 .738.737h3.375a.737.737 0 0 0 .739-.738V8.522h7.435v6.117a6.86 6.86 0 1 0 4.852 0V8.522h7.435v44.74a.739.739 0 0 0 .739.738h3.375a.737.737 0 0 0 .738-.738V17.35a.738.738 0 0 0-1.477 0v35.173h-1.898V1.477h1.898V12.2a.739.739 0 0 0 .739.738ZM40.236 5.146v1.898h-1.898V5.147h1.898ZM24.574 17.498H14.82a.739.739 0 0 0 0 1.477h9.755v5.6H4.852v-5.6h2.214a.738.738 0 0 0 0-1.477H4.852V15.6h19.722v1.898Zm0 10.451H4.852v-1.898h19.722v1.898ZM4.852 29.426h19.722v5.6H4.852v-5.6Zm0 7.076h19.722V38.4H4.852v-1.898Zm19.722-22.379H4.852V8.522h19.722v5.601ZM4.852 39.877h19.722v5.601H4.852v-5.601Zm19.722-34.73v1.898H4.852V5.147h19.722ZM3.375 52.523H1.477V1.477h1.898v51.046Zm1.477-3.67v-1.898h19.722v1.898H4.852Zm23.097 3.67h-1.898V1.477h1.898v51.046Zm1.477-45.478V5.147h7.435v1.898h-7.435Zm8.67 12.397a1.974 1.974 0 0 1 .296-.181c.072-.037.146-.069.222-.096l.077-.024a2.042 2.042 0 0 1 1.193 0l.077.024a1.989 1.989 0 0 1 .336.157 2.009 2.009 0 1 1-2.201.12Zm2.07-1.762a3.417 3.417 0 0 0-.322-.068l-.125-.018a3.173 3.173 0 0 0-.864 0c-.042.005-.084.012-.123.018a4.242 4.242 0 0 0-.322.068l-.072.015v-1.94l.07-.013.056-.009c.08-.012.159-.023.238-.032l.135-.014a5.35 5.35 0 0 1 .369-.019h.163c.124 0 .247.009.369.019.045.003.09.009.136.014.078.009.158.02.237.032l.057.01.069.011v1.941l-.072-.015Zm4.505 3.369a5.383 5.383 0 1 1-7.81-4.8v2.303a3.485 3.485 0 1 0 4.852 0v-2.303a5.385 5.385 0 0 1 2.958 4.8Zm-4.434-6.792c-.042-.006-.082-.008-.123-.013a6.625 6.625 0 0 0-.827-.055 6.628 6.628 0 0 0-.826.055c-.042.005-.082.007-.123.013V8.522h1.899v5.735Zm1.476-7.21v-1.9h7.435v1.898l-7.435.002Z" fill="#36383F" style="fill:color(display-p3 .2118 .2196 .2471);fill-opacity:1"/></g><defs><clipPath id="a"><path fill="#fff" style="fill:#fff;fill-opacity:1" d="M0 0h54v54H0z"/></clipPath></defs></svg>