<svg width="54" height="53" fill="none" xmlns="http://www.w3.org/2000/svg"><path d="M7.5 6 3 21h48.5l-5-15h-39Z" fill="#F04716" style="fill:color(display-p3 .9412 .2784 .0863);fill-opacity:1"/><path fill="#4788FF" style="fill:color(display-p3 .2792 .5331 1);fill-opacity:1" d="M27 34h10v7H27zm0 10h10v6.5H27V44Z"/><path d="M17 44h10v6.5H17V44ZM7 2.5h40V7H7V2.5Z" fill="#F04716" style="fill:color(display-p3 .9412 .2784 .0863);fill-opacity:1"/><path d="M7.214 42.838a.746.746 0 0 0 .522-.212.718.718 0 0 0 .216-.512V40.25a.718.718 0 0 0-.216-.512.745.745 0 0 0-1.044 0 .718.718 0 0 0-.216.512v1.864c0 .192.077.376.216.512a.745.745 0 0 0 .522.212Z" fill="#36383F" style="fill:color(display-p3 .2118 .2196 .2471);fill-opacity:1"/><path d="M52.047 20.993 47.526 6.191V2.61a.713.713 0 0 0-.216-.512.74.74 0 0 0-.522-.212h-5.126a.745.745 0 0 0-.522.212.718.718 0 0 0 0 1.025.745.745 0 0 0 .522.212h4.388v2.236H7.95V3.336h30.473a.745.745 0 0 0 .523-.212.718.718 0 0 0 0-1.025.745.745 0 0 0-.523-.212H7.214a.75.75 0 0 0-.522.212.723.723 0 0 0-.216.513V6.19L1.953 20.993a.711.711 0 0 0 .115.64.735.735 0 0 0 .593.293h3.813V36.84c0 .192.078.377.216.512a.745.745 0 0 0 1.044 0 .718.718 0 0 0 .217-.512V21.925h38.098v27.739h-2.787V25.386a.713.713 0 0 0-.217-.512.738.738 0 0 0-.522-.212H11.475a.75.75 0 0 0-.522.212.722.722 0 0 0-.216.512v24.278H7.95v-3.966a.718.718 0 0 0-.217-.512.745.745 0 0 0-1.044 0 .718.718 0 0 0-.216.512v4.69a.713.713 0 0 0 .216.513.74.74 0 0 0 .522.212h39.574a.749.749 0 0 0 .522-.212.725.725 0 0 0 .216-.512V21.925h3.813a.75.75 0 0 0 .594-.29.716.716 0 0 0 .116-.642Zm-39.832 5.118h29.57v23.553h-4.48V31.611a.718.718 0 0 0-.217-.512.745.745 0 0 0-.522-.213H27a.746.746 0 0 0-.522.213.718.718 0 0 0-.216.512v8.664h-8.829a.745.745 0 0 0-.522.212.718.718 0 0 0-.216.512v8.665h-4.48V26.111Zm15.525 9.103h8.088v5.06h-8.09l.002-5.06Zm8.09-1.449h-8.092v-1.43h8.09l.002 1.43Zm-9.568 9.39h-8.09v-1.431h8.09v1.43Zm1.476-1.431h8.09v1.43h-8.09v-1.43Zm-9.567 2.88h8.09v5.06h-8.09v-5.06Zm9.567 5.06v-5.06h8.09v5.06h-8.09ZM3.653 20.476l4.11-13.454h38.474l4.11 13.454H3.652Z" fill="#36383F" style="fill:color(display-p3 .2118 .2196 .2471);fill-opacity:1"/><path d="M17.53 16.61H9.247a.745.745 0 0 0-.522.212.718.718 0 0 0 0 1.025.745.745 0 0 0 .522.212h8.283a.745.745 0 0 0 .522-.212.717.717 0 0 0 0-1.025.745.745 0 0 0-.522-.212Zm5.048 0h-1.941a.745.745 0 0 0-.522.212.718.718 0 0 0 0 1.025.745.745 0 0 0 .522.212h1.94a.746.746 0 0 0 .523-.212.718.718 0 0 0 0-1.025.746.746 0 0 0-.523-.212Z" fill="#36383F" style="fill:color(display-p3 .2118 .2196 .2471);fill-opacity:1"/></svg>