<svg width="55" height="55" fill="none" xmlns="http://www.w3.org/2000/svg"><g clip-path="url(#a)"><path d="M11 11v4h4l.5-4 1.5-1 9 1 7-1 1.5.5C34.333 12 34.4 15 36 15h3.5v-4C39.5 7.5 36 1 30 1H20c-6 0-9 6.5-9 10Z" fill="#F04716" style="fill:color(display-p3 .9412 .2784 .0863);fill-opacity:1"/><path d="M12.5 50.5h-10V54h10v-3.5ZM38 54v-3.5h10V54H38ZM25.5 41.5l3 2.5 6-5.5h-4l-5 3Zm-5-3 4 3-.5 1-4 2-2-1-1.5-5h4Z" fill="#4788FF" style="fill:color(display-p3 .2792 .5331 1);fill-opacity:1"/><path d="M37 15H13.5v6.5L19 24l2-1 4-4.5 4 4.5 2.5 1 5.5-2.5V15Z" fill="#A3A6B2" style="fill:color(display-p3 .6392 .651 .698);fill-opacity:1"/><path d="M10.33 17.924a.806.806 0 0 0-.805.806v3.514a.806.806 0 1 0 1.612 0V18.73a.806.806 0 0 0-.806-.806Zm29.688 5.126a.805.805 0 0 0 .805-.806V18.73a.806.806 0 1 0-1.611 0v3.514c0 .445.36.805.806.805Zm-14.844 6.688a3.07 3.07 0 0 0 2.24-.977.806.806 0 1 0-1.18-1.097 1.434 1.434 0 0 1-1.06.463c-.407 0-.783-.165-1.06-.463a.806.806 0 0 0-1.18 1.097 3.07 3.07 0 0 0 2.24.977Zm19.686 4.809-8.488 8.488a.806.806 0 1 0 1.14 1.139l8.487-8.487a.805.805 0 1 0-1.14-1.14ZM34.75 45.796a.806.806 0 0 0-1.14 0l-7.828 7.829a.806.806 0 1 0 1.14 1.139l7.828-7.828a.806.806 0 0 0 0-1.14Zm5.892-2.127a.803.803 0 0 0 1.14 0l7.981-7.982a.806.806 0 1 0-1.14-1.14l-7.981 7.982a.806.806 0 0 0 0 1.14Z" fill="#36383F" style="fill:color(display-p3 .2118 .2196 .2471);fill-opacity:1"/><path d="m53.098 33.732-6.256-6.256a1.8 1.8 0 0 0-2.542 0L34.049 37.732h-3.611v-3.555a8.82 8.82 0 0 0 7.266-7.559h2.44c2.336 0 4.237-2.013 4.237-4.488v-3.287c0-2.474-1.901-4.488-4.238-4.488h-.034v-3.25C40.11 4.981 35.127 0 29.003 0h-7.658a11.133 11.133 0 0 0-8.209 3.625.806.806 0 1 0 1.191 1.086 9.519 9.519 0 0 1 7.018-3.1h7.659c5.235 0 9.494 4.26 9.494 9.494v3.25h-1.84c-.619 0-1.085-.49-1.085-1.14v-1.662a2.234 2.234 0 0 0-2.565-2.212l-4.984.74a19.513 19.513 0 0 1-5.7 0l-4.984-.74a2.235 2.235 0 0 0-2.564 2.212v1.662c.008.706-.644 1.247-1.4 1.14h-1.525v-3.25c0-1.125.194-2.225.578-3.27a.806.806 0 1 0-1.513-.556 11.068 11.068 0 0 0-.677 3.826v3.25h-.034c-2.336 0-4.237 2.014-4.237 4.489v3.286c0 2.475 1.9 4.488 4.237 4.488h2.44a8.82 8.82 0 0 0 7.266 7.559v3.555H14.41c-4.4 0-8.184 3.16-9.205 7.685l-.963 3.933h-.895c-1.087 0-1.97.884-1.97 1.97v1.71c0 1.086.883 1.97 1.97 1.97h8.924c.445 0 .806-.36.806-.806V46.76a.806.806 0 1 0-1.611 0v2.59H5.9l.87-3.557.004-.014c.853-3.79 3.992-6.436 7.635-6.436h1.418l.963 3.535c.56 2.22 3.393 3.298 5.342 1.843l3.041-2.265 2.381 1.773-9.39 9.396a.806.806 0 1 0 1.14 1.139l26.134-26.149a.186.186 0 0 1 .263 0l.658.658L26.78 48.854a.806.806 0 1 0 1.14 1.14L47.5 30.412l4.46 4.46a.186.186 0 0 1 0 .263l-18.485 18.49a.806.806 0 0 0 1.14 1.139l2.657-2.66v2.09c0 .445.361.806.806.806h8.925c1.086 0 1.97-.884 1.97-1.97v-1.71c0-1.086-.884-1.97-1.97-1.97h-.896l-.962-3.932a10.58 10.58 0 0 0-.257-.93l8.21-8.214a1.797 1.797 0 0 0 0-2.542ZM11.466 53.389h-8.12a.36.36 0 0 1-.358-.359v-1.71a.36.36 0 0 1 .359-.359h8.119v2.428Zm13.708-12.744c-.82 0-1.588-.323-2.161-.91l-1.49-1.525V34.3h7.303v3.91l-1.49 1.525a3 3 0 0 1-2.162.91Zm.893-20.27V23c0 .49-.4.89-.89.89h-.005a.89.89 0 0 1-.89-.89v-2.626c0-.488.395-.885.887-.889.376-.003.866.331.898.89Zm.878-1.997c-1.501-.983-3.913-.459-4.778 1.35l-1.213 2.244a2.249 2.249 0 0 1-2.76 1.033l-2.078-.782a3 3 0 0 1-1.934-2.788v-3.468h21.984v3.47a3 3 0 0 1-1.933 2.786l-2.08.782a2.249 2.249 0 0 1-2.759-1.032l-1.213-2.245a3.37 3.37 0 0 0-1.236-1.35Zm13.199-2.411c1.447 0 2.626 1.29 2.626 2.876v3.287c0 1.587-1.179 2.877-2.627 2.877h-2.365v-9.04h2.366Zm-23.757-2.753v-1.661c0-.25.136-.404.217-.474a.615.615 0 0 1 .5-.145l4.984.74c2.04.303 4.132.303 6.172 0l4.985-.74a.617.617 0 0 1 .5.145.62.62 0 0 1 .216.473v1.662c0 .41.084.795.235 1.141H16.153c.15-.346.234-.731.234-1.14ZM7.58 22.13v-3.287c0-1.586 1.178-2.876 2.626-2.876h2.366v9.04h-2.366c-1.448 0-2.626-1.29-2.626-2.877Zm6.603 3.368V22.92c.399.343.859.62 1.366.811l2.08.782a3.866 3.866 0 0 0 4.744-1.775l.299-.552V23c0 1.379 1.122 2.5 2.5 2.5h.006c1.379 0 2.5-1.121 2.5-2.5v-.814l.3.553a3.87 3.87 0 0 0 3.4 2.019c.45 0 .904-.08 1.344-.245l2.08-.782a4.557 4.557 0 0 0 1.365-.81v2.577c0 3.965-3.226 7.191-7.191 7.191h-7.601c-3.965 0-7.192-3.226-7.192-7.191Zm6.989 17.931c-.856.685-2.506.311-2.825-.974l-.848-3.112h2.88l1.482 1.518c.416.425.898.759 1.424.994l-2.113 1.574Zm5.894-1.574a4.626 4.626 0 0 0 1.424-.994l1.482-1.518h2.467l-3.742 3.744a177.7 177.7 0 0 0-1.63-1.232Zm20.296 9.465v1.71a.36.36 0 0 1-.36.359h-8.118V50.96h8.119a.36.36 0 0 1 .359.359Zm-2.914-1.97h-4.421l3.552-3.553.87 3.553Z" fill="#36383F" style="fill:color(display-p3 .2118 .2196 .2471);fill-opacity:1"/></g><defs><clipPath id="a"><path fill="#fff" style="fill:#fff;fill-opacity:1" d="M0 0h55v55H0z"/></clipPath></defs></svg>