<svg width="46" height="46" fill="none" xmlns="http://www.w3.org/2000/svg"><rect width="46" height="46" rx="12" fill="#F04716" style="fill:color(display-p3 .9412 .2784 .0863);fill-opacity:1"/><path fill-rule="evenodd" clip-rule="evenodd" d="M10 14.5a.5.5 0 0 1 .5-.5h3a.5.5 0 0 1 .485.379L14.89 18H31.5a.5.5 0 0 1 .477.65l-2.5 8A.5.5 0 0 1 29 27H16.5a.5.5 0 0 1-.485-.379L13.11 15H10.5a.5.5 0 0 1-.5-.5Zm5.14 4.5 1.75 7h11.742l2.188-7H15.14Zm3.36 13a1.5 1.5 0 1 0 0-3 1.5 1.5 0 0 0 0 3Zm0 1a2.5 2.5 0 1 0 0-5 2.5 2.5 0 0 0 0 5Zm8-1a1.5 1.5 0 1 0 0-3 1.5 1.5 0 0 0 0 3Zm0 1a2.5 2.5 0 1 0 0-5 2.5 2.5 0 0 0 0 5Z" fill="#fff" style="fill:#fff;fill-opacity:1"/><path d="M32 15.5a1.5 1.5 0 0 0-3 0V17h-1.5a1.5 1.5 0 0 0 0 3H29v1.5a1.5 1.5 0 0 0 3 0V20h1.5a1.5 1.5 0 0 0 0-3H32v-1.5Z" fill="#fff" stroke="#F04716" style="fill:#fff;fill-opacity:1;stroke:color(display-p3 .9412 .2784 .0863);stroke-opacity:1" stroke-width="2"/></svg>