<svg width="112" height="94" fill="none" xmlns="http://www.w3.org/2000/svg"><path d="M78 62c5.523 0 10-4.477 10-10s-4.477-10-10-10-10 4.477-10 10c0 .41.025.813.072 1.21 3.043.821 5.403 3.981 5.851 7.924A9.965 9.965 0 0 0 78 62Z" fill="#4788FF" style="fill:color(display-p3 .2792 .5331 1);fill-opacity:1"/><path d="M15 48c-6 10.4-2.167 20 .5 23.5L9 70l-3.5-3.5-2-5-1.5-8 1.5-7 5-9 7-5.5 7-1 9.5 4c-3.167 0-11 2.6-17 13Z" fill="#F04716" style="fill:color(display-p3 .9412 .2784 .0863);fill-opacity:1"/><path d="M65 31.5 59.5 36l-6-10-2-7.5 2-6.5L56 6.5l5-3L66.5 2H89l7 1.5 5.5 3.5 3 8 .5 6.5-4 8.5-4 7-6-5 4.5-8.5 1.5-4v-3l-1-3-2.5-3L89 9H67.5l-6 2-2 4.5v4l5.5 12Z" fill="#4788FF" style="fill:color(display-p3 .2792 .5331 1);fill-opacity:1"/><path d="m43 79.5 2 8 5.5 4.5 8-1 5.5-3 5.5-5.5 3-5.5 1-10.5-1-7.5-3-4-5-2-5.5 1-6.5 3.5-4 4-4 9-1.5 9Z" fill="#F04716" style="fill:color(display-p3 .9412 .2784 .0863);fill-opacity:1"/><path d="M67.406 54C71.148 55.779 74 59.963 74 67c0 12.5-9 25-19.5 25-1.356 0-3.193-.326-5-1.207M67.406 54C64.5 52.62 61.059 52.689 58 54c-7 3-15 12-15 25 0 6.72 3.2 10.183 6.5 11.793M67.406 54 54.5 48.5c-4.992-.832-11.023 2.144-15.5 8.35m10.5 33.943L39 86c-6.242-4.013-6.918-13.591-3.8-22m0 0a30.164 30.164 0 0 1 1.3-3 30.093 30.093 0 0 1 2.5-4.15M35.2 64 26 59c-.667-.5-2.29-2.5-.5-5.5s4.833-2 5.5-1.5l8 4.85m3.5-10.35c0-4.038-2.61-8.729-7.3-10.384M12.5 55c3-12 12-19.5 19-19.5 1.346 0 2.582.222 3.7.616M28.5 73.5c-2.076 1.038-5.101 1.645-8 .926M12 61c.585 8.771 4.418 12.413 8.5 13.426m14.7-38.31L25 32c-7.5-3-16.5 2.5-21 14.5s1 21 5.5 23.5l11 4.426" stroke="#36383F" style="stroke:color(display-p3 .2118 .2196 .2471);stroke-opacity:1" stroke-width="3" stroke-linecap="round" stroke-linejoin="round"/><path d="M56.413 41.5C60.308 33.507 68.51 28 78 28c13.255 0 24 10.745 24 24 0 9.49-5.507 17.692-13.5 21.587H79" stroke="#36383F" style="stroke:color(display-p3 .2118 .2196 .2471);stroke-opacity:1" stroke-width="3" stroke-linecap="round" stroke-linejoin="round"/><path d="M79.5 61.888C84.311 61.164 88 57.013 88 52c0-5.523-4.477-10-10-10a10 10 0 0 0-9 5.636M91.5 31.88l4.798-9.98C99.171 15.925 94.817 9 88.187 9H68.314c-6.75 0-11.098 7.156-7.987 13.147l4.856 9.353" stroke="#36383F" style="stroke:color(display-p3 .2118 .2196 .2471);stroke-opacity:1" stroke-width="3" stroke-linecap="round" stroke-linejoin="round"/><path d="m97.5 37.035 5.754-12.218C108.252 14.205 100.509 2 88.779 2H68.09C56.147 2 48.414 14.61 53.828 25.254L59.5 36.406" stroke="#36383F" style="stroke:color(display-p3 .2118 .2196 .2471);stroke-opacity:1" stroke-width="3" stroke-linecap="round" stroke-linejoin="round"/></svg>