<svg width="114" height="114" fill="none" xmlns="http://www.w3.org/2000/svg"><path fill="#4788FF" style="fill:color(display-p3 .2792 .5331 1);fill-opacity:1" d="M13 53h6v13h-6z"/><path fill="#F04716" style="fill:color(display-p3 .9412 .2784 .0863);fill-opacity:1" d="M18 47h6v25h-6z"/><path fill="#4788FF" style="fill:color(display-p3 .2792 .5331 1);fill-opacity:1" d="M95 53h6v13h-6z"/><path fill="#F04716" style="fill:color(display-p3 .9412 .2784 .0863);fill-opacity:1" d="M90 47h6v25h-6z"/><path fill="#A3A6B2" style="fill:color(display-p3 .6392 .651 .698);fill-opacity:1" d="M26 30h62v9H26z"/><path fill-rule="evenodd" clip-rule="evenodd" d="M31.5 22a1.5 1.5 0 0 0-1.5 1.5V29h-4.5a1.5 1.5 0 0 0-1.5 1.5v.5h-8.5a3.5 3.5 0 1 0 0 7H24v.5a1.5 1.5 0 0 0 1.5 1.5H30v15h-4v-5.5a4.5 4.5 0 1 0-9 0v1.626A4 4 0 0 0 12 55v9a4 4 0 0 0 5 3.874V69.5a4.5 4.5 0 1 0 9 0V64h4v18.879L23.879 89H13.5a1.5 1.5 0 0 0 0 3h87a1.5 1.5 0 0 0 0-3H90.121L84 82.879V64h4v5.5a4.5 4.5 0 1 0 9 0v-1.626A4 4 0 0 0 102 64v-9a4 4 0 0 0-5-3.874V49.5a4.5 4.5 0 1 0-9 0V55h-4V40h4.5a1.5 1.5 0 0 0 1.5-1.5V38h8.5a3.5 3.5 0 1 0 0-7H90v-.5a1.5 1.5 0 0 0-1.5-1.5H84v-5.5a1.5 1.5 0 0 0-1.5-1.5h-7a1.5 1.5 0 0 0-1.5 1.5V29H40v-5.5a1.5 1.5 0 0 0-1.5-1.5h-7ZM97 55v9a1 1 0 1 0 2 0v-9a1 1 0 1 0-2 0Zm-3-5.5a1.5 1.5 0 0 0-3 0v20a1.5 1.5 0 0 0 3 0v-20ZM17 64v-9a1 1 0 1 0-2 0v9a1 1 0 1 0 2 0Zm3 5.5a1.5 1.5 0 0 0 3 0v-20a1.5 1.5 0 0 0-3 0v20ZM37 29h-4v-4h4v4Zm-21.5 5H24v1h-8.5a.5.5 0 0 1 0-1ZM87 32H27v5h60v-5Zm11.5 3H90v-1h8.5a.5.5 0 0 1 0 1ZM33 55V40h4v15h-4Zm7 0V40h34v15H40Zm37 0V40h4v15h-4Zm-51 6v-3h62v3H26Zm7 28V64h4v25h-4Zm7-6.121V64h34v18.879L67.879 89H46.12L40 82.879ZM77 89V64h4v25h-4Zm8.879 0H84v-1.879L85.879 89ZM74 87.121V89h-1.879L74 87.121Zm-34 0L41.879 89H40v-1.879Zm-10 0V89h-1.879L30 87.121ZM81 25v4h-4v-4h4Z" fill="#36383F" style="fill:color(display-p3 .2118 .2196 .2471);fill-opacity:1"/></svg>