<svg width="114" height="114" fill="none" xmlns="http://www.w3.org/2000/svg"><path d="M56.5 44.5 33 36l4.5-11 23 8-4 11.5Z" fill="#F04716" style="fill:color(display-p3 .9412 .2784 .0863);fill-opacity:1"/><path d="m58.5 57 4-5 4.5 1h16.5l4.5-1 4.5 2.75 4 8.25v10.5l-2 4v9l-2 6.5-6.5 4.5H67.5l-8-4-3-6V63l2-6Z" fill="#4788FF" style="fill:color(display-p3 .2792 .5331 1);fill-opacity:1"/><path d="M88.5 68H84c-2.5 0-5 2.5-5 5.5s2.5 5.5 5.5 5.5h5c1.756 0 3.511-.457 5-1.43m0 0c2.326-1.52 3-4.301 3-8.57v-3c0-8-10-15-10-15m7 26.57V86c0 6.075-4.925 11-11 11h-16c-6.075 0-11-4.925-11-11V69.5m6-18V40h13m-13 11.5v0A1.5 1.5 0 0 0 64 53h21.5a2 2 0 0 0 2-2v0m-25 .5s-.652.76-1.526 2M87.5 51v-5m0 0v-6h-12m12 6h-11m-6 0h-2M33 36.5l23.5 8m-23.5-8c-2.333.333-7.7 2.9-10.5 10.5l-6.8 18.458c-2.06 5.59.705 11.804 6.236 14.016l17.218 6.888a9 9 0 0 0 11.472-4.495L56.5 69.5M33 36.5l2.625-7m20.875 15 4-11.5L49 28.75m7.5 15.75 4.474 9m0 0c-1.777 2.521-4.474 7.024-4.474 11.14v4.86m-20.875-40 1.875-5L49 28.75m-13.375.75L47.5 34m1.5-5.25L62.5 14l13 26m-52 24-.76 1.977a5 5 0 0 0 2.726 6.403L30.5 74.5" stroke="#36383F" style="stroke:color(display-p3 .2118 .2196 .2471);stroke-opacity:1" stroke-width="3" stroke-linecap="round" stroke-linejoin="round"/></svg>