<svg width="114" height="114" fill="none" xmlns="http://www.w3.org/2000/svg"><path fill-rule="evenodd" clip-rule="evenodd" d="M89 52H57v27h32V52Zm-8 7H66v8h15v-8Z" fill="#4788FF" style="fill:color(display-p3 .2792 .5331 1);fill-opacity:1"/><path fill="#DEDFE7" style="fill:color(display-p3 .8706 .8745 .9059);fill-opacity:1" d="M19 79h77v9H19z"/><path fill="#F04716" style="fill:color(display-p3 .9412 .2784 .0863);fill-opacity:1" d="M34 58h15v10H34zm18-32h11v12l-5.5-3-5.5 3V26Z"/><rect x="19" y="79" width="77" height="9" rx="2" stroke="#36383F" style="stroke:color(display-p3 .2118 .2196 .2471);stroke-opacity:1" stroke-width="3" stroke-linejoin="round"/><rect x="25" y="52" width="32" height="27" rx="2" stroke="#36383F" style="stroke:color(display-p3 .2118 .2196 .2471);stroke-opacity:1" stroke-width="3" stroke-linejoin="round"/><rect x="57" y="52" width="32" height="27" rx="2" stroke="#36383F" style="stroke:color(display-p3 .2118 .2196 .2471);stroke-opacity:1" stroke-width="3" stroke-linejoin="round"/><rect x="41" y="26" width="32" height="26" rx="2" stroke="#36383F" style="stroke:color(display-p3 .2118 .2196 .2471);stroke-opacity:1" stroke-width="3" stroke-linejoin="round"/><rect x="34" y="59" width="15" height="8" rx="2" stroke="#36383F" style="stroke:color(display-p3 .2118 .2196 .2471);stroke-opacity:1" stroke-width="3" stroke-linejoin="round"/><rect x="66" y="59" width="15" height="8" rx="2" stroke="#36383F" style="stroke:color(display-p3 .2118 .2196 .2471);stroke-opacity:1" stroke-width="3" stroke-linejoin="round"/><path d="M52 31v7l5.5-3 5.5 3v-7" stroke="#36383F" style="stroke:color(display-p3 .2118 .2196 .2471);stroke-opacity:1" stroke-width="3" stroke-linecap="round" stroke-linejoin="round"/></svg>