<svg width="114" height="114" fill="none" xmlns="http://www.w3.org/2000/svg"><g clip-path="url(#a)"><path d="M60.563 16.435V9.31h44.753v7.125H60.562Z" fill="#DEDFE7" style="fill:color(display-p3 .8706 .8745 .9059);fill-opacity:1"/><path d="M1.559 1.559h7.125V112.44H1.559V1.559Z" fill="#4788FF" style="fill:color(display-p3 .2792 .5331 1);fill-opacity:1"/><path d="M53.438 1.559h7.124V112.44h-7.124V1.559Z" fill="#F04716" style="fill:color(display-p3 .9412 .2784 .0863);fill-opacity:1"/><path d="M8.684 16.435V9.31h44.754v7.125H8.684Zm0 22.064v-7.125h44.754v7.125H8.684Zm0 22.064v-7.126h44.754v7.126H8.684Zm0 22.063V75.5h44.754v7.125H8.684Zm0 22.064v-7.125h44.754v7.125H8.684Z" fill="#DEDFE7" style="fill:color(display-p3 .8706 .8745 .9059);fill-opacity:1"/><path d="M105.316 1.559h7.125V112.44h-7.125V1.559ZM82.94 31.513a12.925 12.925 0 1 0-.002 25.85 12.925 12.925 0 0 0 .001-25.85Zm0 18.722a5.798 5.798 0 1 1 5.798-5.798 5.805 5.805 0 0 1-5.799 5.794v.004Z" fill="#4788FF" style="fill:color(display-p3 .2792 .5331 1);fill-opacity:1"/><path d="M79.377 32.022v7.849a5.764 5.764 0 0 1 7.125 0v-7.85a12.735 12.735 0 0 0-7.125 0Z" fill="#4788FF" style="fill:color(display-p3 .2792 .5331 1);fill-opacity:1"/><path d="M82.94 31.513a12.92 12.92 0 0 1 3.562.509V9.31h-7.125v22.71a12.918 12.918 0 0 1 3.563-.508Z" fill="#A3A6B2" style="fill:color(display-p3 .6392 .651 .698);fill-opacity:1"/><path d="M22.488 40.058h1.225a1.559 1.559 0 1 0 0-3.118h-1.225a1.559 1.559 0 1 0 0 3.118Z" fill="#36383F" style="fill:color(display-p3 .2118 .2196 .2471);fill-opacity:1"/><path d="M112.441 27.316A1.56 1.56 0 0 0 114 25.758v-24.2a1.565 1.565 0 0 0-.456-1.102A1.563 1.563 0 0 0 112.441 0h-7.125a1.557 1.557 0 0 0-1.558 1.559v6.19H62.121v-6.19A1.558 1.558 0 0 0 60.562 0h-7.124a1.559 1.559 0 0 0-1.56 1.559v6.19H10.243v-6.19A1.559 1.559 0 0 0 8.684 0H1.559A1.559 1.559 0 0 0 0 1.559V112.44A1.557 1.557 0 0 0 1.559 114h7.125a1.556 1.556 0 0 0 1.558-1.559v-6.189H51.88v6.192A1.556 1.556 0 0 0 53.438 114h7.124a1.565 1.565 0 0 0 1.103-.456 1.564 1.564 0 0 0 .456-1.103v-94.45h15.697v12.914a14.483 14.483 0 1 0 10.243 0V17.99h15.697v94.45a1.565 1.565 0 0 0 .456 1.103 1.57 1.57 0 0 0 1.102.456h7.125a1.565 1.565 0 0 0 1.103-.456 1.57 1.57 0 0 0 .456-1.103V36.627a1.556 1.556 0 0 0-1.559-1.559 1.56 1.56 0 0 0-1.558 1.559v74.256h-4.008V3.117h4.008v22.64a1.565 1.565 0 0 0 .456 1.103 1.563 1.563 0 0 0 1.102.456Zm-27.498-16.45v4.007h-4.007v-4.007h4.007ZM51.88 36.94H31.284a1.559 1.559 0 1 0 0 3.117H51.88v11.82H10.242v-11.82h4.675a1.559 1.559 0 0 0 0-3.117h-4.675v-4.008H51.88v4.008Zm0 22.063H10.242v-4.008H51.88v4.008ZM10.242 62.12H51.88v11.821H10.242v-11.82Zm0 14.938H51.88v4.008H10.242V77.06ZM51.88 29.816H10.242V17.99H51.88v11.825ZM10.242 84.184H51.88V96.01H10.242V84.184ZM51.88 10.867v4.007H10.242v-4.007H51.88ZM7.125 110.883H3.117V3.117h4.008v107.766Zm3.117-7.749v-4.007H51.88v4.007H10.242Zm48.762 7.749h-4.008V3.117h4.008v107.766Zm3.117-96.01v-4.007h15.697v4.007H62.121Zm18.302 26.17a4.18 4.18 0 0 1 .627-.382 4.18 4.18 0 0 1 .469-.202c.053-.018.109-.034.163-.05.82-.25 1.697-.25 2.517 0 .054.017.11.032.163.05a4.18 4.18 0 0 1 .709.332 4.24 4.24 0 1 1-4.647.252Zm4.37-3.718a7.173 7.173 0 0 0-.679-.143c-.089-.014-.178-.03-.262-.04a6.704 6.704 0 0 0-1.824 0c-.089.01-.178.026-.262.04-.23.037-.456.089-.679.143-.05.013-.102.018-.15.031V33.26l.145-.026c.04-.008.08-.013.12-.019.167-.027.335-.05.501-.069.096-.01.192-.022.287-.03.257-.021.517-.035.778-.04h.345c.261 0 .52.019.778.04.095.008.19.02.286.03.167.02.334.042.501.069.04.006.08.011.12.019l.146.026v4.096c-.05-.013-.101-.018-.151-.03Zm9.513 7.112a11.366 11.366 0 1 1-16.488-10.133v4.861a7.358 7.358 0 1 0 10.243 0v-4.86a11.37 11.37 0 0 1 6.244 10.132Zm-9.362-14.34c-.089-.012-.172-.016-.258-.027-.16-.02-.32-.038-.483-.052a13.956 13.956 0 0 0-1.263-.064c-.42 0-.841.026-1.263.064a12.36 12.36 0 0 0-.482.052c-.09.01-.172.015-.259.028V17.99h4.008v12.107Zm3.117-15.22v-4.011h15.697v4.007l-15.697.003Z" fill="#36383F" style="fill:color(display-p3 .2118 .2196 .2471);fill-opacity:1"/></g><defs><clipPath id="a"><path fill="#fff" style="fill:#fff;fill-opacity:1" d="M0 0h114v114H0z"/></clipPath></defs></svg>