<svg width="114" height="114" fill="none" xmlns="http://www.w3.org/2000/svg"><g clip-path="url(#a)"><path fill="#DEDFE7" style="fill:color(display-p3 .8706 .8745 .9059);fill-opacity:1" d="M36 6h70v8H36z"/><path d="M29 1h8v112h-8V1ZM1 1h8v112H1V1Z" fill="#4788FF" style="fill:color(display-p3 .2792 .5331 1);fill-opacity:1"/><path d="M105 1h7.5v111H105V1Z" fill="#F04716" style="fill:color(display-p3 .9412 .2784 .0863);fill-opacity:1"/><path d="M105.5 6.5v-5h7v18m-7-13h-69m69 0v7m-69-7v-5h-7v5m7 0v7m0 0v99h-7v-15m7-84h11m58 0v99h7v-77m-7-22h-11m-65 0v-7m0 7h-3.25m3.25 0v14m-21-14v-7m0 7H18m-9.5 0v14m0-21v-5h-7v111h7v-15m0-91h21m83 21.25v-2.125m-83 1.875h-21m21 0v7m-21-7v7m0 0h21m-21 0v14m21-14v14m-21 0h21m-21 0v7m21-7v7m0 0h-21m21 0v14m-21-14v14m0 0h21m-21 0v7m21-7v7m0 0h-21m21 0v14m-21-14v14m0 0h21m-21 0v7m21-7v7m0 0h-21m39-84V40m0-26.5h5m0 0V40m0-26.5h16m0 0V40m0-26.5h5m0 0V40m0-26.5h16m0 0V70m0-56.5h5m0 0V70" stroke="#36383F" style="stroke:color(display-p3 .2118 .2196 .2471);stroke-opacity:1" stroke-width="3" stroke-linecap="round" stroke-linejoin="round"/><circle cx="50" cy="48" r="7.5" stroke="#36383F" style="stroke:color(display-p3 .2118 .2196 .2471);stroke-opacity:1" stroke-width="3"/><circle cx="71" cy="48" r="7.5" stroke="#36383F" style="stroke:color(display-p3 .2118 .2196 .2471);stroke-opacity:1" stroke-width="3"/><circle cx="92" cy="78" r="7.5" stroke="#36383F" style="stroke:color(display-p3 .2118 .2196 .2471);stroke-opacity:1" stroke-width="3"/></g><defs><clipPath id="a"><path fill="#fff" style="fill:#fff;fill-opacity:1" d="M0 0h114v114H0z"/></clipPath></defs></svg>