<svg width="114" height="114" fill="none" xmlns="http://www.w3.org/2000/svg"><g clip-path="url(#a)"><path fill="#A3A6B2" style="fill:color(display-p3 .6392 .651 .698);fill-opacity:1" d="M60 29h45v6H60z"/><path fill="#4788FF" style="fill:color(display-p3 .2792 .5331 1);fill-opacity:1" d="M1 1h7v111H1zm52 0h7v111h-7z"/><path d="M105 21h7.5v91H105V21Z" fill="#F04716" style="fill:color(display-p3 .9412 .2784 .0863);fill-opacity:1"/><path d="M105.5 29.5v-8h7v58m-7-50h-45m45 0v7m-45-7v-28h-7v8m7 20v7m0 0v76h-7v-96m7 20h45m0 0v76h7v-17m-59-79v-7m0 7h-7.25m-37.75 0v96h-7V1.5h7v8m0 7v-7m0 7H37m-28.5-7h45m59 78.25v-2.125" stroke="#36383F" style="stroke:color(display-p3 .2118 .2196 .2471);stroke-opacity:1" stroke-width="3" stroke-linecap="round" stroke-linejoin="round"/></g><defs><clipPath id="a"><path fill="#fff" style="fill:#fff;fill-opacity:1" d="M0 0h114v114H0z"/></clipPath></defs></svg>