<svg width="180" height="43" fill="none" xmlns="http://www.w3.org/2000/svg"><path fill-rule="evenodd" clip-rule="evenodd" d="M0 14.279v14.365a7.171 7.171 0 0 0 3.585 6.216l12.348 7.113a7.111 7.111 0 0 0 7.082.012l12.474-7.13a7.171 7.171 0 0 0 3.607-6.227V14.295a7.171 7.171 0 0 0-3.606-6.227L23.014.938a7.111 7.111 0 0 0-7.082.012L3.585 8.063A7.171 7.171 0 0 0 0 14.28Zm3.103 14.365V14.28c0-1.451.773-2.791 2.026-3.513l2.783-1.603V33.76L5.13 32.157a4.053 4.053 0 0 1-2.026-3.513Zm11.015 8.691 3.36 1.935a4.02 4.02 0 0 0 4.002.007l11.207-6.405H13.963a1.555 1.555 0 0 1-1.552-1.558c0-.86.695-1.557 1.552-1.557h21.87a4.06 4.06 0 0 0 .16-1.13V16.984h-22.03a1.555 1.555 0 0 1-1.552-1.558c0-.86.695-1.558 1.552-1.558H35.97a4.052 4.052 0 0 0-2.016-3.092L21.48 3.645a4.02 4.02 0 0 0-4.003.008l-3.359 1.935v7.033a2.798 2.798 0 0 0-2.793 2.804 2.798 2.798 0 0 0 2.793 2.804v10.282a2.798 2.798 0 0 0-2.793 2.803 2.798 2.798 0 0 0 2.793 2.804v3.217Z" fill="#fff" style="fill:#fff;fill-opacity:1"/><path d="M53.161 24.58c-1.216 0-2.397-.15-3.541-.45-1.145-.301-2.075-.702-2.79-1.203l1.394-3.133c.673.444 1.453.801 2.34 1.073.887.272 1.76.408 2.619.408 1.631 0 2.447-.408 2.447-1.223 0-.43-.236-.744-.709-.945-.458-.214-1.202-.436-2.232-.665-1.13-.243-2.075-.5-2.833-.773a4.862 4.862 0 0 1-1.953-1.352c-.544-.615-.816-1.445-.816-2.49 0-.915.25-1.738.751-2.467.5-.744 1.245-1.33 2.232-1.76 1.002-.43 2.225-.644 3.67-.644.988 0 1.961.115 2.92.343.959.215 1.803.537 2.533.966l-1.31 3.155c-1.43-.773-2.819-1.159-4.164-1.159-.844 0-1.46.129-1.846.386-.386.244-.58.566-.58.966s.23.701.688.902c.458.2 1.195.407 2.21.622 1.145.243 2.09.508 2.834.794.758.272 1.41.715 1.953 1.33.558.602.837 1.424.837 2.469 0 .901-.25 1.717-.751 2.446-.5.73-1.252 1.317-2.254 1.76-1.002.43-2.218.644-3.649.644ZM69.506 9.257c1.359 0 2.54.228 3.541.686 1.002.444 1.775 1.088 2.318 1.932.544.83.816 1.81.816 2.94s-.272 2.11-.816 2.94c-.543.83-1.316 1.474-2.318 1.932-1.001.443-2.182.665-3.541.665h-2.62v3.928h-4.249V9.257h6.869Zm-.258 7.747c.873 0 1.531-.186 1.975-.558.443-.386.665-.93.665-1.63 0-.702-.222-1.246-.665-1.632-.444-.386-1.102-.58-1.975-.58h-2.361v4.4h2.361Zm17.65 7.576c-1.588 0-3.019-.336-4.293-1.009a7.677 7.677 0 0 1-2.983-2.79c-.716-1.187-1.073-2.525-1.073-4.013s.357-2.826 1.073-4.013a7.676 7.676 0 0 1 2.983-2.79c1.274-.673 2.705-1.009 4.293-1.009 1.589 0 3.013.336 4.272 1.009 1.273.672 2.268 1.602 2.983 2.79.73 1.187 1.095 2.525 1.095 4.013s-.365 2.826-1.095 4.013c-.715 1.188-1.71 2.118-2.983 2.79-1.26.673-2.683 1.01-4.272 1.01Zm0-3.52c.759 0 1.446-.178 2.06-.536a3.879 3.879 0 0 0 1.46-1.503c.358-.658.537-1.409.537-2.253 0-.844-.179-1.588-.537-2.232a3.842 3.842 0 0 0-1.46-1.524 4.025 4.025 0 0 0-2.06-.536 4.03 4.03 0 0 0-2.06.536 3.84 3.84 0 0 0-1.46 1.524c-.358.644-.537 1.388-.537 2.232 0 .844.18 1.595.537 2.253a3.878 3.878 0 0 0 1.46 1.503 4.025 4.025 0 0 0 2.06.536Zm18.003-.772h-2.319v3.992h-4.25V9.257h6.869c1.36 0 2.54.228 3.542.686 1.001.444 1.774 1.088 2.318 1.932.544.83.816 1.81.816 2.94 0 1.087-.258 2.039-.773 2.854-.501.802-1.224 1.431-2.168 1.89l3.241 4.72h-4.55l-2.726-3.991Zm2.683-5.473c0-.701-.222-1.245-.666-1.631-.443-.386-1.102-.58-1.974-.58h-2.362v4.4h2.362c.872 0 1.531-.186 1.974-.558.444-.386.666-.93.666-1.63Zm10.484-2.189h-4.614v-3.37h13.458v3.37h-4.594V24.28h-4.25V12.626Zm18.653 11.954c-1.588 0-3.019-.336-4.293-1.009a7.671 7.671 0 0 1-2.983-2.79c-.716-1.187-1.074-2.525-1.074-4.013s.358-2.826 1.074-4.013a7.67 7.67 0 0 1 2.983-2.79c1.274-.673 2.705-1.009 4.293-1.009s3.012.336 4.271 1.009c1.274.672 2.268 1.602 2.984 2.79.73 1.187 1.095 2.525 1.095 4.013s-.365 2.826-1.095 4.013c-.716 1.188-1.71 2.118-2.984 2.79-1.259.673-2.683 1.01-4.271 1.01Zm0-3.52c.758 0 1.445-.178 2.061-.536a3.881 3.881 0 0 0 1.459-1.503c.358-.658.537-1.409.537-2.253 0-.844-.179-1.588-.537-2.232a3.844 3.844 0 0 0-1.459-1.524 4.029 4.029 0 0 0-2.061-.536c-.758 0-1.445.179-2.061.536a3.844 3.844 0 0 0-1.459 1.524c-.358.644-.537 1.388-.537 2.232 0 .844.179 1.595.537 2.253a3.881 3.881 0 0 0 1.459 1.503 4.029 4.029 0 0 0 2.061.536Zm26.15-11.803-6.439 15.023h-4.186l-6.418-15.023h4.593l4.079 9.786 4.164-9.786h4.207Zm11.281 12.103h-6.354l-1.18 2.92h-4.336l6.632-15.023h4.186l6.654 15.023h-4.422l-1.18-2.92Zm-1.245-3.133-1.932-4.807-1.932 4.807h3.864ZM49.575 34.122c-.416 0-.791-.092-1.127-.276a2.054 2.054 0 0 1-.786-.761 2.167 2.167 0 0 1-.282-1.098c0-.403.094-.767.282-1.091a2.03 2.03 0 0 1 .792-.768 2.308 2.308 0 0 1 1.127-.276c.312 0 .6.052.864.157.264.103.488.255.672.455l-.282.282c-.328-.332-.742-.498-1.242-.498-.332 0-.634.076-.905.228-.272.152-.486.36-.642.624-.152.264-.228.56-.228.887 0 .328.076.624.228.888.156.264.37.472.642.623.271.152.573.228.905.228.504 0 .918-.168 1.242-.503l.282.282c-.184.2-.41.353-.678.461a2.335 2.335 0 0 1-.864.156Zm8.27-4.233v4.197h-.438v-3.814H54.75v3.814h-.438V29.89h3.533Zm5.536 4.233c-.415 0-.793-.092-1.133-.276a2.087 2.087 0 0 1-.792-.767 2.134 2.134 0 0 1-.282-1.092c0-.403.094-.767.282-1.091.192-.324.456-.578.792-.762.34-.188.718-.282 1.133-.282.416 0 .79.093 1.122.276.336.184.6.44.792.768a2.1 2.1 0 0 1 .287 1.091c0 .404-.095.77-.287 1.098a2.042 2.042 0 0 1-.792.761 2.274 2.274 0 0 1-1.122.276Zm0-.396c.332 0 .632-.074.9-.221.268-.152.478-.36.63-.624a1.78 1.78 0 0 0 .228-.894c0-.327-.076-.623-.228-.887a1.602 1.602 0 0 0-.63-.624 1.791 1.791 0 0 0-.9-.228c-.331 0-.633.076-.905.228-.268.148-.48.356-.636.624-.152.264-.228.56-.228.887 0 .328.076.626.228.894.156.264.368.472.636.623.272.148.574.222.905.222Zm7.111-3.837c.536 0 .956.127 1.26.383.303.256.455.608.455 1.056 0 .448-.152.8-.456 1.055-.303.252-.723.378-1.26.378h-1.127v1.325h-.444V29.89h1.572Zm-.012 2.482c.416 0 .734-.09.953-.27.22-.184.33-.441.33-.773 0-.34-.11-.6-.33-.78-.22-.184-.537-.276-.953-.276h-1.116v2.1h1.116Zm7.525-2.099H76.53v3.814h-.438v-3.814h-1.475v-.383h3.388v.383Zm3.058-.383h.438v3.478l2.687-3.478h.402v4.197h-.438v-3.472l-2.687 3.472h-.402V29.89Zm9.711 2.032c.292.06.514.178.666.354.152.172.228.398.228.678 0 .364-.13.643-.39.84-.256.195-.634.293-1.133.293h-1.86V29.89h1.746c.447 0 .797.091 1.05.275.251.184.377.45.377.798 0 .236-.06.436-.18.6-.12.16-.288.28-.504.36Zm-2.05-.132h1.283c.323 0 .571-.066.743-.197.176-.132.264-.324.264-.576 0-.252-.088-.444-.264-.576-.172-.132-.42-.198-.743-.198h-1.284v1.547Zm1.42 1.943c.724 0 1.086-.27 1.086-.81 0-.527-.362-.79-1.085-.79h-1.422v1.6h1.422Zm8.421-3.843v4.197h-.438V32.15H95.5v1.937h-.443V29.89h.443v1.87h2.627v-1.87h.438Zm5.453 1.499c.496 0 .874.112 1.134.335.264.224.396.552.396.984 0 .452-.14.795-.42 1.031-.276.232-.676.348-1.199.348h-1.668V29.89h.438v1.499h1.319Zm-.101 2.344c.387 0 .681-.086.881-.258.204-.171.306-.425.306-.761 0-.644-.396-.966-1.187-.966h-1.218v1.985h1.218Zm2.357-3.843h.437v4.197h-.437V29.89Zm7.098 3.813v.384h-2.969V29.89h2.879v.383h-2.435v1.494h2.171v.377h-2.171v1.56h2.525Zm8.503-1.541h-.959v1.925h-.432V29.89h.432v1.883h.959l1.422-1.883h.48l-1.56 2.038 1.65 2.16h-.51l-1.482-1.926Zm6.788 1.961c-.416 0-.794-.092-1.133-.276a2.087 2.087 0 0 1-.792-.767 2.134 2.134 0 0 1-.282-1.092c0-.403.094-.767.282-1.091.192-.324.456-.578.792-.762a2.298 2.298 0 0 1 1.133-.282c.416 0 .79.093 1.122.276.335.184.599.44.791.768a2.1 2.1 0 0 1 .288 1.091c0 .404-.096.77-.288 1.098a2.047 2.047 0 0 1-.791.761 2.276 2.276 0 0 1-1.122.276Zm0-.396c.332 0 .632-.074.9-.221.268-.152.477-.36.629-.624a1.78 1.78 0 0 0 .228-.894c0-.327-.076-.623-.228-.887a1.599 1.599 0 0 0-.629-.624 1.793 1.793 0 0 0-.9-.228c-.332 0-.634.076-.906.228a1.647 1.647 0 0 0-.635.624c-.152.264-.228.56-.228.887 0 .328.076.626.228.894.156.264.368.472.635.623.272.148.574.222.906.222Zm9.899-3.837v4.197h-.426v-3.358l-1.649 2.824h-.21l-1.649-2.806v3.34h-.426V29.89h.366l1.823 3.11 1.805-3.112h.366Zm7.227 0v4.197h-.438v-3.814h-2.657v3.814h-.438V29.89h3.533Zm6.923 0v4.197h-.438v-3.814h-2.027l-.048 1.404c-.02.58-.068 1.047-.144 1.403-.072.352-.184.615-.335.791a.77.77 0 0 1-.606.258 1.43 1.43 0 0 1-.336-.042l.036-.396a.863.863 0 0 0 .198.024c.176 0 .318-.07.426-.21.112-.14.196-.355.252-.647.056-.296.094-.686.114-1.17l.059-1.799h2.849Zm6.664 3.813v.384h-2.968V29.89h2.878v.383h-2.435v1.494h2.171v.377h-2.171v1.56h2.525Zm4.655-1.541h-.959v1.925h-.432V29.89h.432v1.883h.959l1.422-1.883h.48l-1.56 2.038 1.65 2.16h-.51l-1.482-1.926Zm6.782 1.961c-.416 0-.792-.092-1.127-.276a2.055 2.055 0 0 1-.786-.761 2.166 2.166 0 0 1-.282-1.098c0-.403.094-.767.282-1.091a2.03 2.03 0 0 1 .792-.768 2.304 2.304 0 0 1 1.127-.276c.312 0 .6.052.864.157.264.103.487.255.671.455l-.282.282c-.327-.332-.741-.498-1.241-.498-.332 0-.634.076-.906.228-.271.152-.485.36-.641.624-.152.264-.228.56-.228.887 0 .328.076.624.228.888.156.264.37.472.641.623.272.152.574.228.906.228.504 0 .918-.168 1.241-.503l.282.282c-.184.2-.409.353-.677.461a2.337 2.337 0 0 1-.864.156Zm6.494-2.734c.496 0 .874.112 1.134.335.264.224.395.552.395.984 0 .452-.139.795-.419 1.031-.276.232-.676.348-1.2.348h-1.667V29.89h.438v1.499h1.319Zm-.102 2.344c.388 0 .682-.086.882-.258.204-.171.306-.425.306-.761 0-.644-.396-.966-1.188-.966h-1.217v1.985h1.217Zm2.357-3.843H180v4.197h-.438V29.89Z" fill="#fff" style="fill:#fff;fill-opacity:1"/></svg>