<svg width="185" height="14" fill="none" xmlns="http://www.w3.org/2000/svg"><path d="M5.673 11.045c-.98 0-1.875-.235-2.685-.705a5.236 5.236 0 0 1-1.905-1.92c-.46-.81-.69-1.7-.69-2.67s.23-1.86.69-2.67c.47-.81 1.11-1.45 1.92-1.92.81-.47 1.71-.705 2.7-.705.99 0 1.885.23 2.685.69a4.98 4.98 0 0 1 1.905 1.905c.46.8.69 1.69.69 2.67s-.235 1.88-.705 2.7a5.253 5.253 0 0 1-4.605 2.625Zm0-.555c.88 0 1.68-.21 2.4-.63a4.792 4.792 0 0 0 1.71-1.725c.42-.73.63-1.535.63-2.415 0-.88-.205-1.675-.615-2.385A4.451 4.451 0 0 0 8.103 1.64c-.71-.42-1.51-.63-2.4-.63-.89 0-1.7.21-2.43.63a4.64 4.64 0 0 0-1.71 1.725A4.735 4.735 0 0 0 .948 5.75c0 .87.205 1.67.615 2.4.42.72.99 1.29 1.71 1.71.72.42 1.52.63 2.4.63Zm.135-1.62c-.59 0-1.125-.13-1.605-.39-.47-.27-.84-.64-1.11-1.11a3.247 3.247 0 0 1-.405-1.62c0-.6.135-1.135.405-1.605.27-.48.64-.85 1.11-1.11a3.217 3.217 0 0 1 1.605-.405c.51 0 .97.105 1.38.315.42.2.755.48 1.005.84l-.645.48a1.964 1.964 0 0 0-.765-.645c-.3-.14-.63-.21-.99-.21-.65 0-1.19.215-1.62.645-.42.43-.63.995-.63 1.695 0 .7.21 1.265.63 1.695.43.43.97.645 1.62.645.36 0 .69-.07.99-.21.3-.14.555-.355.765-.645l.645.465c-.25.37-.585.66-1.005.87-.41.2-.87.3-1.38.3Zm16.235 2.22c-1.04 0-1.985-.23-2.835-.69-.84-.47-1.5-1.11-1.98-1.92-.47-.81-.705-1.72-.705-2.73s.235-1.92.705-2.73a5.109 5.109 0 0 1 1.98-1.905c.85-.47 1.795-.705 2.835-.705s1.975.23 2.805.69c.84.46 1.5 1.1 1.98 1.92.48.81.72 1.72.72 2.73s-.24 1.925-.72 2.745a5.109 5.109 0 0 1-1.98 1.905c-.83.46-1.765.69-2.805.69Zm0-.99c.83 0 1.58-.185 2.25-.555a4.14 4.14 0 0 0 1.575-1.56c.38-.67.57-1.415.57-2.235 0-.82-.19-1.56-.57-2.22a4.004 4.004 0 0 0-1.575-1.56c-.67-.38-1.42-.57-2.25-.57-.83 0-1.585.19-2.265.57-.67.37-1.2.89-1.59 1.56-.38.66-.57 1.4-.57 2.22 0 .82.19 1.565.57 2.235.39.66.92 1.18 1.59 1.56.68.37 1.435.555 2.265.555Zm12.759.99c-1.04 0-1.985-.23-2.835-.69-.84-.47-1.5-1.11-1.98-1.92-.47-.81-.705-1.72-.705-2.73s.235-1.92.705-2.73a5.109 5.109 0 0 1 1.98-1.905c.85-.47 1.795-.705 2.835-.705s1.975.23 2.805.69c.84.46 1.5 1.1 1.98 1.92.48.81.72 1.72.72 2.73s-.24 1.925-.72 2.745a5.109 5.109 0 0 1-1.98 1.905c-.83.46-1.765.69-2.805.69Zm0-.99c.83 0 1.58-.185 2.25-.555a4.14 4.14 0 0 0 1.575-1.56c.38-.67.57-1.415.57-2.235 0-.82-.19-1.56-.57-2.22a4.004 4.004 0 0 0-1.575-1.56c-.67-.38-1.42-.57-2.25-.57-.83 0-1.585.19-2.265.57-.67.37-1.2.89-1.59 1.56-.38.66-.57 1.4-.57 2.22 0 .82.19 1.565.57 2.235.39.66.92 1.18 1.59 1.56.68.37 1.435.555 2.265.555Zm12.758.99c-1.04 0-1.985-.23-2.835-.69-.84-.47-1.5-1.11-1.98-1.92-.47-.81-.704-1.72-.704-2.73s.235-1.92.705-2.73a5.109 5.109 0 0 1 1.98-1.905C45.575.645 46.52.41 47.56.41s1.975.23 2.805.69c.84.46 1.5 1.1 1.98 1.92.48.81.72 1.72.72 2.73s-.24 1.925-.72 2.745a5.109 5.109 0 0 1-1.98 1.905c-.83.46-1.765.69-2.805.69Zm0-.99c.83 0 1.58-.185 2.25-.555a4.14 4.14 0 0 0 1.575-1.56c.38-.67.57-1.415.57-2.235 0-.82-.19-1.56-.57-2.22a4.004 4.004 0 0 0-1.575-1.56c-.67-.38-1.42-.57-2.25-.57-.83 0-1.585.19-2.265.57-.67.37-1.2.89-1.59 1.56-.38.66-.57 1.4-.57 2.22 0 .82.19 1.565.57 2.235.39.66.92 1.18 1.59 1.56.68.37 1.435.555 2.265.555Zm11.06-3.045 2.175-2.85h.99l-2.13 2.85 2.13 2.835h-.99L58.62 7.055Zm2.67 0 2.175-2.85h.99l-2.13 2.85 2.13 2.835h-.99L61.29 7.055Zm10.09 4.035c-1.04 0-1.98-.23-2.82-.69a5.138 5.138 0 0 1-1.965-1.905c-.47-.82-.705-1.735-.705-2.745s.235-1.92.705-2.73c.48-.82 1.14-1.46 1.98-1.92.84-.46 1.78-.69 2.82-.69.78 0 1.5.13 2.16.39.66.26 1.22.64 1.68 1.14l-.705.705c-.82-.83-1.855-1.245-3.105-1.245-.83 0-1.585.19-2.265.57-.68.38-1.215.9-1.605 1.56-.38.66-.57 1.4-.57 2.22 0 .82.19 1.56.57 2.22.39.66.925 1.18 1.605 1.56.68.38 1.435.57 2.265.57 1.26 0 2.295-.42 3.105-1.26l.705.705c-.46.5-1.025.885-1.695 1.155-.66.26-1.38.39-2.16.39Zm12.97-7.98V11h-1.065V4.055h-4.95V11H77.27V3.11h7.08Zm6.282 7.965c-.76 0-1.445-.17-2.055-.51-.61-.35-1.09-.83-1.44-1.44-.35-.61-.525-1.3-.525-2.07 0-.77.175-1.46.525-2.07a3.72 3.72 0 0 1 1.44-1.425c.61-.34 1.295-.51 2.055-.51.76 0 1.445.17 2.055.51.61.34 1.085.815 1.425 1.425.35.61.525 1.3.525 2.07 0 .77-.175 1.46-.525 2.07a3.72 3.72 0 0 1-1.425 1.44c-.61.34-1.295.51-2.055.51Zm0-.945c.56 0 1.06-.125 1.5-.375.45-.26.8-.625 1.05-1.095s.375-1.005.375-1.605c0-.6-.125-1.135-.375-1.605s-.6-.83-1.05-1.08c-.44-.26-.94-.39-1.5-.39s-1.065.13-1.515.39c-.44.25-.79.61-1.05 1.08-.25.47-.375 1.005-.375 1.605 0 .6.125 1.135.375 1.605.26.47.61.835 1.05 1.095.45.25.955.375 1.515.375Zm10.346-7.08c.74 0 1.41.17 2.01.51.6.33 1.07.8 1.41 1.41.34.61.51 1.305.51 2.085 0 .79-.17 1.49-.51 2.1-.34.61-.81 1.085-1.41 1.425-.59.33-1.26.495-2.01.495-.64 0-1.22-.13-1.74-.39-.51-.27-.93-.66-1.26-1.17v4.395h-1.065V3.11h1.02v1.56c.32-.52.74-.92 1.26-1.2a3.76 3.76 0 0 1 1.785-.42Zm-.075 7.08c.55 0 1.05-.125 1.5-.375.45-.26.8-.625 1.05-1.095.26-.47.39-1.005.39-1.605 0-.6-.13-1.13-.39-1.59-.25-.47-.6-.835-1.05-1.095-.45-.26-.95-.39-1.5-.39-.56 0-1.065.13-1.515.39-.44.26-.79.625-1.05 1.095-.25.46-.375.99-.375 1.59 0 .6.125 1.135.375 1.605.26.47.61.835 1.05 1.095.45.25.955.375 1.515.375Zm11.551-6.075h-2.985V11h-1.065V4.055h-2.985V3.11h7.035v.945Zm4.428 7.02c-.76 0-1.445-.17-2.055-.51-.61-.35-1.09-.83-1.44-1.44-.35-.61-.525-1.3-.525-2.07 0-.77.175-1.46.525-2.07a3.72 3.72 0 0 1 1.44-1.425c.61-.34 1.295-.51 2.055-.51.76 0 1.445.17 2.055.51.61.34 1.085.815 1.425 1.425.35.61.525 1.3.525 2.07 0 .77-.175 1.46-.525 2.07a3.72 3.72 0 0 1-1.425 1.44c-.61.34-1.295.51-2.055.51Zm0-.945c.56 0 1.06-.125 1.5-.375.45-.26.8-.625 1.05-1.095s.375-1.005.375-1.605c0-.6-.125-1.135-.375-1.605s-.6-.83-1.05-1.08c-.44-.26-.94-.39-1.5-.39s-1.065.13-1.515.39c-.44.25-.79.61-1.05 1.08-.25.47-.375 1.005-.375 1.605 0 .6.125 1.135.375 1.605.26.47.61.835 1.05 1.095.45.25.955.375 1.515.375Zm11.306-3.21c1.07.25 1.605.895 1.605 1.935 0 .69-.255 1.22-.765 1.59-.51.37-1.27.555-2.28.555h-3.585V3.11h3.48c.9 0 1.605.175 2.115.525.51.35.765.85.765 1.5 0 .43-.12.8-.36 1.11-.23.3-.555.525-.975.675Zm-3.99-.3h2.37c.61 0 1.075-.115 1.395-.345.33-.23.495-.565.495-1.005 0-.44-.165-.77-.495-.99-.32-.22-.785-.33-1.395-.33h-2.37v2.67Zm2.505 3.54c.68 0 1.19-.11 1.53-.33.34-.22.51-.565.51-1.035s-.155-.815-.465-1.035c-.31-.23-.8-.345-1.47-.345h-2.61v2.745h2.505Zm8.301-7.11c1.03 0 1.82.26 2.37.78.55.51.825 1.27.825 2.28V11h-1.02V9.77c-.24.41-.595.73-1.065.96-.46.23-1.01.345-1.65.345-.88 0-1.58-.21-2.1-.63-.52-.42-.78-.975-.78-1.665 0-.67.24-1.21.72-1.62.49-.41 1.265-.615 2.325-.615h2.505v-.48c0-.68-.19-1.195-.57-1.545-.38-.36-.935-.54-1.665-.54-.5 0-.98.085-1.44.255-.46.16-.855.385-1.185.675l-.48-.795c.4-.34.88-.6 1.44-.78.56-.19 1.15-.285 1.77-.285Zm-.375 7.185c.6 0 1.115-.135 1.545-.405.43-.28.75-.68.96-1.2V7.34h-2.475c-1.35 0-2.025.47-2.025 1.41 0 .46.175.825.525 1.095.35.26.84.39 1.47.39Zm5.461-.345 2.13-2.835-2.13-2.85h.99l2.175 2.85-2.175 2.835h-.99Zm2.67 0 2.13-2.835-2.13-2.85h.99l2.175 2.85-2.175 2.835h-.99Zm5.425-.45c.23 0 .42.08.57.24.15.15.225.34.225.57 0 .12-.02.25-.06.39-.03.14-.08.3-.15.48l-.63 2.07h-.72l.51-2.175a.77.77 0 0 1-.39-.27.83.83 0 0 1-.15-.495c0-.23.075-.42.225-.57.15-.16.34-.24.57-.24Zm13.45.6V11h-7.365v-.765l4.365-4.275c.55-.54.92-1.005 1.11-1.395.2-.4.3-.8.3-1.2 0-.62-.215-1.1-.645-1.44-.42-.35-1.025-.525-1.815-.525-1.23 0-2.185.39-2.865 1.17l-.765-.66c.41-.48.93-.85 1.56-1.11.64-.26 1.36-.39 2.16-.39 1.07 0 1.915.255 2.535.765.63.5.945 1.19.945 2.07 0 .54-.12 1.06-.36 1.56S160.1 5.88 159.43 6.53l-3.57 3.51h5.775Zm5.481 1.05a3.81 3.81 0 0 1-2.175-.645c-.63-.43-1.125-1.045-1.485-1.845-.35-.81-.525-1.76-.525-2.85s.175-2.035.525-2.835c.36-.81.855-1.43 1.485-1.86a3.81 3.81 0 0 1 2.175-.645c.81 0 1.53.215 2.16.645.64.43 1.14 1.05 1.5 1.86.36.8.54 1.745.54 2.835 0 1.09-.18 2.04-.54 2.85-.36.8-.86 1.415-1.5 1.845-.63.43-1.35.645-2.16.645Zm0-.99c.61 0 1.145-.17 1.605-.51.47-.34.835-.835 1.095-1.485.26-.65.39-1.435.39-2.355 0-.92-.13-1.705-.39-2.355-.26-.65-.625-1.145-1.095-1.485-.46-.34-.995-.51-1.605-.51s-1.15.17-1.62.51c-.46.34-.82.835-1.08 1.485-.26.65-.39 1.435-.39 2.355 0 .92.13 1.705.39 2.355.26.65.62 1.145 1.08 1.485.47.34 1.01.51 1.62.51Zm12.888-.06V11h-7.365v-.765l4.365-4.275c.55-.54.92-1.005 1.11-1.395.2-.4.3-.8.3-1.2 0-.62-.215-1.1-.645-1.44-.42-.35-1.025-.525-1.815-.525-1.23 0-2.185.39-2.865 1.17l-.765-.66c.41-.48.93-.85 1.56-1.11.64-.26 1.36-.39 2.16-.39 1.07 0 1.915.255 2.535.765.63.5.945 1.19.945 2.07 0 .54-.12 1.06-.36 1.56S178.47 5.88 177.8 6.53l-3.57 3.51h5.775ZM184.27.5V11h-1.08V1.46h-2.475V.5h3.555Z" fill="#DEDFE7" style="fill:color(display-p3 .8706 .8745 .9059);fill-opacity:1"/></svg>